<svg width="109" height="31" viewBox="0 0 109 31" fill="none" xmlns="http://www.w3.org/2000/svg">
<path d="M23.1064 3.07102V9.13103C21.473 9.0035 18.4357 8.25854 14.9744 8.62257C12.8511 8.84601 10.9327 9.9561 10.3207 12.0232C9.68685 14.1589 9.61 16.3295 10.2547 18.4903C10.8521 20.4974 12.2135 21.632 14.2627 22.0282C17.1653 22.5868 20.3111 21.7431 23.1064 21.226V27.2369C17.8411 30.286 12.7143 30.8511 7.52919 29.2866C3.32942 28.019 1.13635 24.7225 0.480711 20.5933C-0.515003 14.312 0.318301 10.6155 0.484526 9.82804C1.43937 5.29665 4.53115 2.10752 8.46387 0.703145C15.3903 -1.76882 23.1064 3.07102 23.1064 3.07102Z" fill="white"/>
<path d="M108.778 27.3471H87.1514C87.1514 25.3476 87.0501 23.4615 87.2114 21.5982C87.2615 21.0206 87.9924 20.4761 88.4676 19.9682C91.6319 16.5818 94.813 13.2112 97.9849 9.83298C98.0776 9.73543 98.1424 9.61064 98.2912 9.39538H94.4631V11.6722C92.1758 12.1382 89.9952 12.0308 87.7629 11.7158C87.7215 11.5246 87.6528 11.3523 87.6528 11.1796C87.6452 8.80518 87.6566 6.4275 87.6365 4.05091C87.6327 3.446 87.734 3.07596 88.4752 3.07869C94.8245 3.09667 101.173 3.09231 107.521 3.08087C108.094 3.07978 108.315 3.28033 108.305 3.86126C108.281 5.3828 108.336 6.90707 108.272 8.42588C108.256 8.80954 107.994 9.24933 107.718 9.54415C104.379 13.1257 101.018 16.6837 97.6656 20.2505C97.5217 20.4031 97.4029 20.5791 97.1881 20.8516H102.005C102.005 20.1454 102.032 19.4543 101.996 18.766C101.963 18.1759 102.163 17.8173 102.781 17.8298C104.781 17.8723 106.779 17.9323 108.779 17.9873V27.3471H108.778Z" fill="white"/>
<path d="M25.2187 21.2657C25.7741 21.2308 26.2079 21.2031 26.7535 21.1709V9.31464C26.2439 9.27105 25.8133 9.23072 25.2209 9.1784V3.08897H27.2685C29.9052 3.08897 32.5425 3.11567 35.1781 3.07098C35.874 3.06008 36.2604 3.29224 36.2773 3.94892C36.3144 5.4334 36.3117 6.91898 36.2812 8.40237C36.2566 9.51737 35.3421 9.1784 34.6276 9.29339V11.6068H40.3599V9.32827C39.8558 9.27813 39.356 9.22581 38.726 9.16314V3.14673H49.5775V9.13481C49.1186 9.19475 48.6903 9.25252 48.1834 9.31846V21.2134C48.6379 21.2434 49.0358 21.2684 49.5911 21.3061V27.2549H38.7178V21.263C39.2901 21.208 39.7866 21.1627 40.3588 21.1082V18.039H34.6107V21.1807C35.0549 21.2031 35.4876 21.2232 36.1177 21.2559V27.2592H25.2187V21.2657Z" fill="white"/>
<path d="M75.0841 27.3154V21.2892C76.8951 21.6652 76.6363 20.4853 76.6325 19.4532C76.6188 16.4477 76.6275 13.4395 76.6275 10.4351V9.31792C76.0913 9.25525 75.6574 9.20566 75.1092 9.14026V3.09115C78.74 3.09115 82.2231 3.07317 85.7051 3.12984C85.9585 3.13366 86.4027 3.66718 86.4174 3.9729C86.4948 5.41652 86.4746 6.86776 86.4446 8.313C86.4256 9.17023 86.3885 9.17023 84.8947 9.3092V21.208C85.3323 21.2417 85.7585 21.2728 86.358 21.3202C86.358 23.1535 86.3743 24.9857 86.3318 26.8167C86.3269 26.9868 85.9492 27.2914 85.7443 27.2941C82.2618 27.3241 78.7787 27.3154 75.0841 27.3154Z" fill="white"/>
<path d="M57.013 26.9966C53.3549 25.692 51.1651 22.9464 50.249 19.1949C49.5154 16.1867 49.5541 13.185 50.5313 10.2319C51.7826 6.45253 54.3397 3.98166 58.2027 3.05195C61.3833 2.28682 64.6141 2.25685 67.7326 3.40836C71.0794 4.64325 73.2152 7.04382 74.2627 10.4755C75.3549 14.0472 75.2715 17.59 73.8943 21.0107C72.2321 25.1421 68.9539 27.4032 64.5835 27.7492C60.8209 28.0468 58.6888 27.5944 57.013 26.9966ZM62.3332 9.02858C60.0333 9.02858 58.1689 11.839 58.1689 15.3049C58.1689 18.7715 60.0339 21.5813 62.3332 21.5813C64.6342 21.5813 66.4987 18.772 66.4987 15.3049C66.4992 11.839 64.6342 9.02858 62.3332 9.02858Z" fill="white"/>
</svg>
